#define blackcat_width 20
#define blackcat_height 20
static char blackcat_bits[] = {
  0x00, 0x00, 0x00, 0x00, 0x00, 0x00, 0x00, 0x00, 0x00, 0x08, 0x00, 0x0c, 
  0x18, 0x00, 0x06, 0x18, 0x00, 0x03, 0x7c, 0xc0, 0x01, 0xfc, 0xf0, 0x01, 
  0xf6, 0xfd, 0x03, 0xfe, 0xff, 0x03, 0xfc, 0xff, 0x03, 0xf0, 0xff, 0x03, 
  0xc0, 0x7f, 0x07, 0xe0, 0xbf, 0x0e, 0x70, 0x06, 0x0d, 0x98, 0x00, 0x08, 
  0x6c, 0x00, 0x00, 0x00, 0x00, 0x00, 0x00, 0x00, 0x00, 0x00, 0x00, 0x00, 
  };
