#define cat_width 20
#define cat_height 20
static char cat_bits[] = {
  0xff, 0xff, 0x0f, 0xff, 0xff, 0x0f, 0xff, 0xff, 0x0f, 0xf7, 0xff, 0x03, 
  0xe7, 0xff, 0x09, 0xe7, 0xff, 0x0c, 0x83, 0x3f, 0x0e, 0x03, 0x0f, 0x0e, 
  0x09, 0x02, 0x0c, 0x01, 0x00, 0x0c, 0x03, 0x00, 0x0c, 0x0f, 0x00, 0x0c, 
  0x3f, 0x80, 0x08, 0x1f, 0x40, 0x01, 0x8f, 0xf9, 0x02, 0x67, 0xff, 0x07, 
  0x93, 0xff, 0x0f, 0xff, 0xff, 0x0f, 0xff, 0xff, 0x0f, 0xff, 0xff, 0x0f, 
  };
